<svg width="911" height="603" viewBox="0 0 911 603" fill="none" xmlns="http://www.w3.org/2000/svg">
<g clip-path="url(#clip0)">
<path d="M383.36 223.5L367.36 213.5L377.193 188.54C378.137 186.142 379.752 184.066 381.843 182.56C383.935 181.054 386.416 180.181 388.989 180.046V180.046C391.562 179.91 394.119 180.517 396.356 181.794C398.593 183.07 400.416 184.963 401.608 187.246C402.8 189.529 403.311 192.107 403.08 194.672C402.848 197.238 401.885 199.683 400.303 201.716L383.36 223.5Z" fill="#FEB8B8"/>
<path d="M299.193 493.934L277.164 484.381L289.117 459.779L306.908 470.19L299.193 493.934Z" fill="#FEB8B8"/>
<path d="M290.642 533.263L265.303 507.421C262.885 504.971 261.534 501.663 261.545 498.221C261.556 494.778 262.929 491.48 265.363 489.046L278.12 476.289C278.58 475.825 279.143 475.476 279.762 475.271C280.382 475.065 281.041 475.008 281.687 475.104C282.333 475.201 282.947 475.448 283.48 475.826C284.012 476.204 284.448 476.702 284.752 477.279C287.893 483.384 292.171 486.675 297.711 486.842C301.032 486.943 301.555 486.819 302.42 490.027L301.354 514.201L305.737 519.189C307.381 521.059 308.293 523.46 308.306 525.95C308.319 528.439 307.432 530.85 305.808 532.737V532.737C304.878 533.818 303.734 534.694 302.449 535.311C301.164 535.928 299.765 536.272 298.34 536.321C296.915 536.37 295.496 536.124 294.171 535.598C292.846 535.071 291.644 534.276 290.642 533.263Z" fill="#2F2E41"/>
<path d="M308.36 474.5L285.36 463.5L304.36 343.5L211.478 351.24C182.111 353.687 157.87 327.425 163.823 298.564C165.556 289.829 170.358 282.002 177.36 276.5L269.36 287.5L328.97 295.696C334.952 296.519 340.538 299.156 344.975 303.251C349.412 307.346 352.487 312.704 353.785 318.601V318.601C354.819 323.3 354.69 328.18 353.408 332.817L308.36 474.5Z" fill="#2F2E41"/>
<path d="M148.86 603C228.941 603 293.86 538.081 293.86 458C293.86 377.919 228.941 313 148.86 313C68.7787 313 3.85999 377.919 3.85999 458C3.85999 538.081 68.7787 603 148.86 603Z" fill="white"/>
<path d="M368.36 207.5L391.36 218.5L354.769 278.614C353.166 281.247 350.821 283.349 348.029 284.655C345.237 285.961 342.121 286.414 339.072 285.957V285.957C336.162 285.52 333.433 284.272 331.2 282.356C328.966 280.439 327.318 277.932 326.444 275.122L285.57 196.941C284.179 194.281 283.378 191.353 283.22 188.357C283.063 185.36 283.553 182.364 284.657 179.573C285.761 176.783 287.453 174.263 289.618 172.185C291.783 170.107 294.371 168.519 297.204 167.531H297.204C299.831 166.615 302.614 166.232 305.39 166.406C308.166 166.579 310.879 167.305 313.371 168.541C315.863 169.777 318.083 171.499 319.901 173.604C321.719 175.709 323.098 178.156 323.958 180.802L343.36 240.5L368.36 207.5Z" fill="#3F3D56"/>
<path d="M267.773 178.179C275.282 179.22 282.995 176.745 289.261 172.478C295.527 168.211 300.479 162.264 304.671 155.948C311.755 145.263 316.863 133.394 319.752 120.905C322.141 123.775 325.266 125.94 328.793 127.167C332.32 128.394 336.114 128.637 339.769 127.869C351.692 125.192 358.842 111.28 356.517 99.2838C354.191 87.2873 344.349 77.7761 333.118 72.9614C321.886 68.1466 309.369 67.3512 297.149 67.3783C289.092 67.3963 280.88 67.772 273.311 70.5356C265.742 73.2992 258.808 78.8073 256.119 86.4031C254.433 91.1653 254.488 96.4362 252.571 101.11C249.091 109.596 240.066 114.229 231.595 117.745C223.125 121.261 213.916 124.831 208.921 132.523C203.28 141.208 204.908 153.33 211.124 161.613C217.34 169.897 227.324 174.7 237.484 176.709C247.644 178.717 258.111 178.22 268.455 177.715" fill="#2F2E41"/>
<path d="M264.193 493.934L242.164 484.381L254.117 459.779L271.908 470.19L264.193 493.934Z" fill="#FEB8B8"/>
<path d="M255.642 533.263L230.303 507.421C227.885 504.971 226.534 501.663 226.545 498.221C226.556 494.778 227.929 491.48 230.363 489.046L243.12 476.289C243.58 475.825 244.143 475.476 244.762 475.271C245.382 475.065 246.041 475.008 246.687 475.104C247.333 475.201 247.947 475.448 248.48 475.826C249.012 476.204 249.448 476.702 249.752 477.279C252.893 483.384 257.171 486.675 262.711 486.842C266.032 486.943 266.555 486.819 267.42 490.027L266.354 514.201L270.737 519.189C272.381 521.059 273.293 523.46 273.306 525.95C273.319 528.439 272.432 530.85 270.808 532.737C269.878 533.818 268.734 534.694 267.449 535.311C266.164 535.928 264.765 536.272 263.34 536.321C261.915 536.37 260.496 536.124 259.171 535.598C257.846 535.071 256.644 534.276 255.642 533.263V533.263Z" fill="#2F2E41"/>
<path d="M270.36 480.5L247.36 469.5L266.36 349.5L173.478 357.24C144.111 359.687 119.87 333.425 125.823 304.564C127.556 295.829 132.358 288.002 139.36 282.5L231.36 293.5L290.97 301.696C296.952 302.519 302.538 305.156 306.975 309.251C311.412 313.346 314.487 318.704 315.785 324.601C316.819 329.3 316.69 334.18 315.408 338.817L270.36 480.5Z" fill="#2F2E41"/>
<path d="M303.86 152.5C324.018 152.5 340.36 136.158 340.36 116C340.36 95.8416 324.018 79.5 303.86 79.5C283.702 79.5 267.36 95.8416 267.36 116C267.36 136.158 283.702 152.5 303.86 152.5Z" fill="#FEB8B8"/>
<path d="M278.36 201.5L263.36 160.5C274.011 149.198 276.356 135.329 272.36 119.5L315.36 143.5L278.36 201.5Z" fill="#FEB8B8"/>
<path d="M248.36 298.5C221.662 307.411 186.33 304.495 142.061 289.337C140.865 288.923 139.788 288.222 138.923 287.297C138.059 286.372 137.434 285.249 137.102 284.028C136.77 282.806 136.741 281.521 137.018 280.286C137.295 279.05 137.87 277.901 138.692 276.938C168.55 241.842 195.339 207.468 217.446 174.197C225.789 163.41 237.657 155.898 250.977 152.974L271.36 148.5L302.36 164.5L310.484 169.092C312.4 170.175 314.076 171.637 315.409 173.388C316.742 175.139 317.705 177.144 318.238 179.279C318.771 181.415 318.865 183.636 318.512 185.809C318.159 187.981 317.368 190.059 316.186 191.916C303.738 222.329 287.513 250.095 259.36 269.5L248.36 298.5Z" fill="#3F3D56"/>
<path d="M304.706 108.898C309.192 116.035 315.859 121.537 323.717 124.587C329.282 126.731 336.345 127.263 340.522 123.007C343.548 119.923 344.151 115.177 343.722 110.879C342.381 97.4603 332.297 85.7755 319.784 80.7479C307.271 75.7203 292.826 76.8193 280.338 81.9094C268.556 86.7119 257.367 96.5507 256.733 109.258C256.408 115.77 258.766 122.941 255.27 128.445C252.637 132.59 247.552 134.275 242.997 136.11C238.443 137.946 233.554 140.843 232.619 145.664C231.984 148.941 233.451 152.361 235.756 154.776C238.177 157.089 241.043 158.886 244.18 160.058C251.608 163.221 259.785 165.193 267.765 163.97C275.745 162.747 283.462 157.888 286.585 150.443C288.99 144.71 288.497 138.24 288.22 132.03C287.942 125.819 288.026 119.204 291.342 113.945C294.659 108.686 302.358 105.742 307.314 109.496" fill="#2F2E41"/>
<path opacity="0.2" d="M215.86 214C215.86 214 244.86 286 251.86 290C258.86 294 258.86 284.008 258.86 284.008L215.86 214Z" fill="black"/>
<path d="M443.482 190.527L267.471 219.161C266.607 219.3 265.722 219.091 265.012 218.579C264.301 218.068 263.823 217.295 263.681 216.431L256.579 172.77C256.439 171.906 256.648 171.022 257.16 170.311C257.671 169.601 258.444 169.122 259.308 168.981L435.319 140.348C436.183 140.208 437.068 140.417 437.778 140.929C438.489 141.44 438.967 142.213 439.109 143.077L446.211 186.738C446.351 187.602 446.142 188.487 445.63 189.197C445.119 189.907 444.346 190.386 443.482 190.527V190.527Z" fill="white"/>
<path d="M286.206 204.228C293.866 204.228 300.075 198.019 300.075 190.359C300.075 182.699 293.866 176.489 286.206 176.489C278.546 176.489 272.336 182.699 272.336 190.359C272.336 198.019 278.546 204.228 286.206 204.228Z" fill="#8FD2ED"/>
<path d="M316.338 176.089C316.038 176.137 315.75 176.244 315.492 176.404C315.233 176.563 315.009 176.772 314.831 177.019C314.653 177.265 314.526 177.544 314.456 177.84C314.386 178.136 314.375 178.442 314.424 178.742C314.473 179.042 314.58 179.33 314.74 179.588C314.9 179.846 315.109 180.07 315.356 180.248C315.603 180.425 315.882 180.552 316.178 180.622C316.474 180.691 316.78 180.701 317.08 180.652L424.642 163.154C424.942 163.106 425.229 162.998 425.487 162.839C425.745 162.679 425.97 162.47 426.147 162.224C426.324 161.977 426.452 161.698 426.521 161.403C426.591 161.107 426.602 160.801 426.553 160.501C426.504 160.202 426.397 159.915 426.237 159.657C426.077 159.398 425.868 159.174 425.622 158.997C425.376 158.819 425.097 158.692 424.801 158.623C424.506 158.553 424.2 158.542 423.9 158.591L316.338 176.089Z" fill="#8FD2ED"/>
<path d="M318.565 189.779C318.265 189.827 317.977 189.934 317.719 190.094C317.46 190.253 317.236 190.462 317.058 190.709C316.88 190.955 316.753 191.234 316.683 191.53C316.613 191.826 316.602 192.132 316.651 192.432C316.7 192.732 316.807 193.019 316.967 193.278C317.127 193.536 317.336 193.76 317.583 193.938C317.83 194.115 318.109 194.242 318.405 194.311C318.701 194.381 319.007 194.391 319.307 194.342L426.869 176.844C427.474 176.745 428.014 176.41 428.372 175.913C428.73 175.415 428.876 174.796 428.777 174.192C428.679 173.587 428.344 173.046 427.848 172.688C427.351 172.33 426.732 172.183 426.127 172.281L318.565 189.779Z" fill="#8FD2ED"/>
<path d="M315.36 240.5L299.36 230.5L309.193 205.54C310.137 203.142 311.752 201.066 313.843 199.56C315.935 198.054 318.416 197.181 320.989 197.046C323.562 196.91 326.119 197.517 328.356 198.794C330.593 200.07 332.416 201.963 333.608 204.246C334.8 206.529 335.311 209.107 335.08 211.672C334.848 214.238 333.885 216.683 332.303 218.716L315.36 240.5Z" fill="#FEB8B8"/>
<path d="M299.36 224.5L322.36 235.5L285.769 295.614C284.166 298.247 281.821 300.349 279.029 301.655C276.237 302.961 273.121 303.414 270.072 302.957V302.957C267.162 302.52 264.433 301.272 262.2 299.356C259.966 297.439 258.318 294.932 257.444 292.122L216.57 213.941C215.179 211.281 214.378 208.353 214.22 205.357C214.063 202.36 214.553 199.364 215.657 196.573C216.761 193.783 218.453 191.263 220.618 189.185C222.783 187.107 225.371 185.519 228.204 184.531H228.204C230.831 183.615 233.614 183.232 236.39 183.406C239.166 183.579 241.879 184.305 244.371 185.541C246.863 186.777 249.083 188.499 250.901 190.604C252.719 192.709 254.098 195.156 254.958 197.802L274.36 257.5L299.36 224.5Z" fill="#3F3D56"/>
<path d="M874.37 441.05C861.12 459.78 857.62 566.38 856.84 600.55C856.82 601.32 856.8 602.05 856.79 602.74H823.25C822.84 602.01 822.46 601.29 822.1 600.55C802.22 561.31 813.25 514.26 813.83 511.88C812.32 519.36 819.15 541.04 826.87 562.04C831.58 497.47 871.85 444.31 874.37 441.05Z" fill="white"/>
<path d="M910.91 600.55L910.51 602.74H0V600.55H910.91Z" fill="#3F3D56"/>
<path d="M829.931 196.174H559.93C558.605 196.172 557.334 195.645 556.396 194.708C555.459 193.77 554.932 192.499 554.93 191.174V124.198C554.932 122.873 555.459 121.602 556.396 120.664C557.334 119.727 558.605 119.2 559.93 119.198H829.931C831.256 119.2 832.527 119.727 833.465 120.664C834.402 121.602 834.929 122.873 834.931 124.198V191.174C834.929 192.499 834.402 193.77 833.465 194.708C832.527 195.645 831.256 196.172 829.931 196.174V196.174ZM559.93 121.198C559.135 121.199 558.372 121.515 557.81 122.078C557.248 122.64 556.931 123.403 556.93 124.198V191.174C556.931 191.969 557.248 192.732 557.81 193.294C558.372 193.857 559.135 194.173 559.93 194.174H829.931C830.726 194.173 831.489 193.857 832.051 193.294C832.614 192.732 832.93 191.969 832.931 191.174V124.198C832.93 123.403 832.614 122.64 832.051 122.078C831.489 121.515 830.726 121.199 829.931 121.198H559.93Z" fill="white"/>
<path d="M594.93 178.686C606.528 178.686 615.93 169.284 615.93 157.686C615.93 146.088 606.528 136.686 594.93 136.686C583.332 136.686 573.93 146.088 573.93 157.686C573.93 169.284 583.332 178.686 594.93 178.686Z" fill="white"/>
<path d="M643.43 143.686C642.502 143.686 641.612 144.055 640.955 144.711C640.299 145.367 639.93 146.258 639.93 147.186C639.93 148.114 640.299 149.004 640.955 149.661C641.612 150.317 642.502 150.686 643.43 150.686H808.43C809.359 150.686 810.249 150.317 810.905 149.661C811.562 149.004 811.93 148.114 811.93 147.186C811.93 146.258 811.562 145.367 810.905 144.711C810.249 144.055 809.359 143.686 808.43 143.686H643.43Z" fill="white"/>
<path d="M643.43 164.686C642.502 164.686 641.612 165.055 640.955 165.711C640.299 166.367 639.93 167.258 639.93 168.186C639.93 169.114 640.299 170.004 640.955 170.661C641.612 171.317 642.502 171.686 643.43 171.686H808.43C809.359 171.686 810.249 171.317 810.905 170.661C811.562 170.004 811.93 169.114 811.93 168.186C811.93 167.258 811.562 166.367 810.905 165.711C810.249 165.055 809.359 164.686 808.43 164.686H643.43Z" fill="white"/>
<path d="M829.931 308.174H559.93C558.605 308.172 557.334 307.645 556.396 306.708C555.459 305.77 554.932 304.499 554.93 303.174V236.198C554.932 234.873 555.459 233.602 556.396 232.664C557.334 231.727 558.605 231.2 559.93 231.198H829.931C831.256 231.2 832.527 231.727 833.465 232.664C834.402 233.602 834.929 234.873 834.931 236.198V303.174C834.929 304.499 834.402 305.77 833.465 306.708C832.527 307.645 831.256 308.172 829.931 308.174ZM559.93 233.198C559.135 233.199 558.372 233.515 557.81 234.078C557.248 234.64 556.931 235.403 556.93 236.198V303.174C556.931 303.969 557.248 304.732 557.81 305.294C558.372 305.857 559.135 306.173 559.93 306.174H829.931C830.726 306.173 831.489 305.857 832.051 305.294C832.614 304.732 832.93 303.969 832.931 303.174V236.198C832.93 235.403 832.614 234.64 832.051 234.078C831.489 233.515 830.726 233.199 829.931 233.198H559.93Z" fill="white"/>
<path d="M594.93 290.686C606.528 290.686 615.93 281.284 615.93 269.686C615.93 258.088 606.528 248.686 594.93 248.686C583.332 248.686 573.93 258.088 573.93 269.686C573.93 281.284 583.332 290.686 594.93 290.686Z" fill="white"/>
<path d="M643.43 255.686C642.502 255.686 641.612 256.055 640.955 256.711C640.299 257.367 639.93 258.258 639.93 259.186C639.93 260.114 640.299 261.004 640.955 261.661C641.612 262.317 642.502 262.686 643.43 262.686H808.43C809.359 262.686 810.249 262.317 810.905 261.661C811.562 261.004 811.93 260.114 811.93 259.186C811.93 258.258 811.562 257.367 810.905 256.711C810.249 256.055 809.359 255.686 808.43 255.686H643.43Z" fill="white"/>
<path d="M643.43 276.686C642.502 276.686 641.612 277.055 640.955 277.711C640.299 278.367 639.93 279.258 639.93 280.186C639.93 281.114 640.299 282.004 640.955 282.661C641.612 283.317 642.502 283.686 643.43 283.686H808.43C809.359 283.686 810.249 283.317 810.905 282.661C811.562 282.004 811.93 281.114 811.93 280.186C811.93 279.258 811.562 278.367 810.905 277.711C810.249 277.055 809.359 276.686 808.43 276.686H643.43Z" fill="white"/>
<path d="M694.931 84C686.624 84 678.503 81.5368 671.597 76.9217C664.69 72.3067 659.306 65.7472 656.128 58.0727C652.949 50.3982 652.117 41.9534 653.738 33.8062C655.358 25.659 659.358 18.1753 665.232 12.3015C671.106 6.42772 678.59 2.42762 686.737 0.807036C694.884 -0.813543 703.329 0.0182006 711.003 3.19708C718.678 6.37596 725.237 11.7592 729.852 18.6661C734.467 25.5729 736.931 33.6932 736.931 42C736.918 53.1352 732.489 63.8108 724.615 71.6846C716.741 79.5584 706.066 83.9874 694.931 84V84ZM694.931 2.00001C687.019 2.00001 679.286 4.34597 672.708 8.74123C666.13 13.1365 661.003 19.3836 657.975 26.6927C654.948 34.0017 654.156 42.0444 655.699 49.8036C657.243 57.5629 661.052 64.6902 666.646 70.2843C672.24 75.8784 679.368 79.688 687.127 81.2314C694.886 82.7748 702.929 81.9827 710.238 78.9552C717.547 75.9277 723.794 70.8008 728.189 64.2228C732.585 57.6449 734.931 49.9113 734.931 42C734.918 31.3951 730.7 21.2279 723.202 13.729C715.703 6.2302 705.535 2.01206 694.931 2.00001Z" fill="white"/>
<path d="M711.503 37.857H699.074V25.4279C699.074 24.3291 698.637 23.2753 697.86 22.4983C697.083 21.7213 696.029 21.2848 694.931 21.2848C693.832 21.2848 692.778 21.7213 692.001 22.4983C691.224 23.2753 690.788 24.3291 690.788 25.4279V37.857H678.358C677.26 37.857 676.206 38.2935 675.429 39.0705C674.652 39.8474 674.215 40.9012 674.215 42C674.215 43.0988 674.652 44.1526 675.429 44.9296C676.206 45.7066 677.26 46.1431 678.358 46.1431H690.788V58.5722C690.788 59.671 691.224 60.7248 692.001 61.5018C692.778 62.2788 693.832 62.7153 694.931 62.7153C696.029 62.7153 697.083 62.2788 697.86 61.5018C698.637 60.7248 699.074 59.671 699.074 58.5722V46.1431H711.503C712.602 46.1431 713.655 45.7066 714.432 44.9296C715.209 44.1527 715.646 43.0989 715.646 42.0001C715.646 40.9013 715.209 39.8475 714.432 39.0705C713.655 38.2935 712.602 37.857 711.503 37.857V37.857Z" fill="#8FD2ED"/>
</g>
<defs>
<clipPath id="clip0">
<rect width="910.91" height="603" fill="white"/>
</clipPath>
</defs>
</svg>
