<svg width="63" height="63" viewBox="0 0 63 63" fill="none" xmlns="http://www.w3.org/2000/svg">
<g clip-path="url(#clip0)">
<path opacity="0.45" d="M63 31.5C63.0008 33.2196 62.8616 34.9364 62.5837 36.6335C62.5612 36.7737 62.537 36.9138 62.5119 37.054C60.7084 47.1938 54.0528 55.6563 45.0311 59.9538C44.9879 59.9746 44.9437 59.9954 44.8996 60.0162C44.5474 60.1823 44.1911 60.3421 43.8308 60.4956C43.7339 60.5363 43.6379 60.5769 43.5401 60.6167C41.5894 61.4246 39.5618 62.0326 37.4884 62.4314C37.3967 62.4496 37.305 62.4661 37.2133 62.4825C35.3361 62.8264 33.4317 62.9996 31.5233 63H31.4359C31.2663 63 31.0967 62.9983 30.928 62.9939C30.8959 62.9939 30.8639 62.9939 30.8319 62.9922C28.9291 62.9538 27.0338 62.7435 25.1688 62.3639C25.078 62.3449 24.9871 62.3259 24.8962 62.306C23.2192 61.949 21.5746 61.454 19.9791 60.8262C19.8813 60.7889 19.7853 60.75 19.6884 60.7102C19.3284 60.5657 18.9721 60.4139 18.6196 60.255C18.5755 60.2351 18.5313 60.2152 18.4881 60.1953C9.20335 55.9783 2.32614 47.3876 0.488062 37.054C0.462966 36.9138 0.438735 36.7737 0.416235 36.6335C-0.137602 33.2412 -0.13877 29.7817 0.412774 26.389C0.443928 26.1943 0.477678 25.9988 0.514024 25.8049C0.761675 24.4442 1.09993 23.1016 1.52652 21.7861C1.56979 21.6519 1.61393 21.5178 1.65893 21.3837C5.87335 8.94981 17.6417 0 31.5 0C46.9523 0 59.8058 11.1271 62.4859 25.8049C62.5223 25.9988 62.556 26.1943 62.5872 26.389C62.8626 28.0787 63.0007 29.788 63 31.5Z" fill="#8FD2ED"/>
<path d="M26.9043 12.3914H26.7363C26.7021 12.3914 26.6174 12.2571 26.6174 12.2185V12.0624C26.6174 11.9406 26.4796 11.6064 26.3578 11.6064C26.236 11.6064 26.0982 11.9406 26.0982 12.0624V12.2185C26.0982 12.2735 26.0558 12.3914 26.004 12.3914H25.8359C25.7141 12.3914 25.3799 12.4859 25.3799 12.6077C25.3799 12.7296 25.7141 12.8241 25.8359 12.8241H26.0363C26.0998 12.8241 26.0982 12.8894 26.0982 12.9226V13.1308C26.0982 13.2526 26.236 13.5868 26.3578 13.5868C26.4796 13.5868 26.6174 13.2526 26.6174 13.1308V12.9226C26.6174 12.895 26.6731 12.8241 26.7039 12.8241H26.9043C27.0261 12.8241 27.3603 12.7296 27.3603 12.6077C27.3603 12.4859 27.0261 12.3914 26.9043 12.3914Z" fill="#2196F3"/>
<path d="M3.36425 21.3255H3.1423C3.09709 21.3255 2.9853 21.1481 2.9853 21.0972V20.891C2.9853 20.7301 2.80326 20.2886 2.64234 20.2886C2.48141 20.2886 2.29939 20.7301 2.29939 20.891V21.0972C2.29939 21.1697 2.24337 21.3255 2.17488 21.3255H1.95293C1.792 21.3255 1.35054 21.4504 1.35054 21.6113C1.35054 21.7723 1.792 21.8971 1.95293 21.8971H2.21763C2.30146 21.8971 2.29939 21.9833 2.29939 22.0272V22.3023C2.29939 22.4632 2.48142 22.9047 2.64234 22.9047C2.80325 22.9047 2.9853 22.4632 2.9853 22.3023V22.0272C2.9853 21.9908 3.0589 21.8971 3.09954 21.8971H3.36425C3.52517 21.8971 3.96664 21.7722 3.96664 21.6113C3.96664 21.4504 3.52517 21.3255 3.36425 21.3255Z" fill="url(#paint0_linear)"/>
<path d="M27.0758 12.3255H26.8538C26.8086 12.3255 26.6968 12.1481 26.6968 12.0972V11.891C26.6968 11.73 26.5148 11.2886 26.3539 11.2886C26.1929 11.2886 26.0109 11.73 26.0109 11.891V12.0972C26.0109 12.1697 25.9549 12.3255 25.8864 12.3255H25.6645C25.5035 12.3255 25.0621 12.4504 25.0621 12.6113C25.0621 12.7722 25.5035 12.8971 25.6645 12.8971H25.9292C26.013 12.8971 26.0109 12.9833 26.0109 13.0272V13.3023C26.0109 13.4632 26.193 13.9047 26.3539 13.9047C26.5148 13.9047 26.6968 13.4632 26.6968 13.3023V13.0272C26.6968 12.9908 26.7704 12.8971 26.8111 12.8971H27.0758C27.2367 12.8971 27.6782 12.7722 27.6782 12.6113C27.6782 12.4504 27.2367 12.3255 27.0758 12.3255Z" fill="url(#paint1_linear)"/>
<path d="M51.0469 16.3928H50.825C50.7798 16.3928 50.668 16.2154 50.668 16.1645V15.9583C50.668 15.7973 50.4859 15.3559 50.325 15.3559C50.1641 15.3559 49.9821 15.7973 49.9821 15.9583V16.1645C49.9821 16.237 49.9261 16.3928 49.8576 16.3928H49.6356C49.4747 16.3928 49.0332 16.5177 49.0332 16.6786C49.0332 16.8395 49.4747 16.9644 49.6356 16.9644H49.9003C49.9841 16.9644 49.9821 17.0506 49.9821 17.0945V17.3696C49.9821 17.5305 50.1641 17.972 50.325 17.972C50.4859 17.972 50.668 17.5305 50.668 17.3696V17.0945C50.668 17.0581 50.7416 16.9644 50.7822 16.9644H51.0469C51.2079 16.9644 51.6493 16.8395 51.6493 16.6786C51.6493 16.5177 51.2079 16.3928 51.0469 16.3928Z" fill="url(#paint2_linear)"/>
<path d="M41.5216 14.9875H41.4145C41.3927 14.9875 41.329 14.9028 41.329 14.8783V14.7788C41.329 14.7011 41.2335 14.4882 41.1559 14.4882C41.0783 14.4882 40.9828 14.7011 40.9828 14.7788V14.8783C40.9828 14.9133 40.9809 14.9875 40.9478 14.9875H40.8407C40.7631 14.9875 40.5501 15.0397 40.5501 15.1174C40.5501 15.195 40.7631 15.2472 40.8407 15.2472H40.9684C41.0089 15.2472 40.9828 15.3058 40.9828 15.3269V15.4596C40.9828 15.5373 41.0783 15.7503 41.1559 15.7503C41.2335 15.7503 41.329 15.5373 41.329 15.4596V15.327C41.329 15.3094 41.3743 15.2472 41.3939 15.2472H41.5216C41.5992 15.2472 41.8122 15.195 41.8122 15.1174C41.8122 15.0397 41.5992 14.9875 41.5216 14.9875Z" fill="#1976D2"/>
<path d="M11.4476 19.8373H11.2731C11.2375 19.8373 11.1336 19.6992 11.1336 19.6591V19.497C11.1336 19.3704 10.9781 19.0233 10.8515 19.0233C10.7249 19.0233 10.5694 19.3704 10.5694 19.497V19.6591C10.5694 19.7162 10.5662 19.8373 10.5123 19.8373H10.3378C10.2112 19.8373 9.86406 19.9223 9.86406 20.0489C9.86406 20.1754 10.2112 20.2605 10.3378 20.2605H10.5459C10.6119 20.2605 10.5694 20.356 10.5694 20.3905V20.6068C10.5694 20.7334 10.725 21.0806 10.8515 21.0806C10.978 21.0806 11.1336 20.7334 11.1336 20.6068V20.3905C11.1336 20.3619 11.2075 20.2605 11.2395 20.2605H11.4476C11.5742 20.2605 11.9214 20.1754 11.9214 20.0489C11.9214 19.9223 11.5742 19.8373 11.4476 19.8373Z" fill="url(#paint3_linear)"/>
<path d="M41.7361 14.9046H41.5616C41.526 14.9046 41.4221 14.7665 41.4221 14.7264V14.5643C41.4221 14.4377 41.2665 14.0906 41.14 14.0906C41.0134 14.0906 40.8578 14.4377 40.8578 14.5643V14.7264C40.8578 14.7835 40.8546 14.9046 40.8008 14.9046H40.6262C40.4997 14.9046 40.1525 14.9896 40.1525 15.1162C40.1525 15.2427 40.4997 15.3278 40.6262 15.3278H40.8344C40.9003 15.3278 40.8578 15.4233 40.8578 15.4578V15.6741C40.8578 15.8007 41.0134 16.1479 41.14 16.1479C41.2665 16.1479 41.4221 15.8007 41.4221 15.6741V15.4578C41.4221 15.4292 41.496 15.3278 41.5279 15.3278H41.7361C41.8627 15.3278 42.2098 15.2427 42.2098 15.1162C42.2098 14.9896 41.8627 14.9046 41.7361 14.9046Z" fill="url(#paint4_linear)"/>
<path d="M11.2331 19.9202H11.1261C11.1043 19.9202 11.0405 19.8355 11.0405 19.811V19.7115C11.0405 19.6338 10.9451 19.4209 10.8674 19.4209C10.7898 19.4209 10.6944 19.6338 10.6944 19.7115V19.811C10.6944 19.846 10.6924 19.9202 10.6594 19.9202H10.5523C10.4746 19.9202 10.2617 19.9724 10.2617 20.05C10.2617 20.1277 10.4746 20.1799 10.5523 20.1799H10.68C10.7204 20.1799 10.6944 20.2385 10.6944 20.2596V20.3923C10.6944 20.47 10.7898 20.6829 10.8674 20.6829C10.9451 20.6829 11.0405 20.47 11.0405 20.3923V20.2596C11.0405 20.2421 11.0858 20.1799 11.1054 20.1799H11.2331C11.3108 20.1799 11.5238 20.1277 11.5238 20.05C11.5238 19.9724 11.3108 19.9202 11.2331 19.9202Z" fill="#1976D2"/>
<path d="M35.8338 13.6029C36.1922 13.6029 36.4828 13.3124 36.4828 12.9539C36.4828 12.5954 36.1922 12.3049 35.8338 12.3049C35.4753 12.3049 35.1847 12.5954 35.1847 12.9539C35.1847 13.3124 35.4753 13.6029 35.8338 13.6029Z" fill="#64B5F6"/>
<path d="M34.5357 19.3433C34.6552 19.3433 34.7521 19.2465 34.7521 19.127C34.7521 19.0075 34.6552 18.9106 34.5357 18.9106C34.4162 18.9106 34.3194 19.0075 34.3194 19.127C34.3194 19.2465 34.4162 19.3433 34.5357 19.3433Z" fill="#0071BC"/>
<path d="M10.085 14.8073C10.4175 14.8073 10.6871 14.5377 10.6871 14.2051C10.6871 13.8725 10.4175 13.6029 10.085 13.6029C9.75242 13.6029 9.48282 13.8725 9.48282 14.2051C9.48282 14.5377 9.75242 14.8073 10.085 14.8073Z" fill="#64B5F6"/>
<path d="M4.76466 16.7851C4.93095 16.7851 5.06575 16.6503 5.06575 16.484C5.06575 16.3178 4.93095 16.183 4.76466 16.183C4.59838 16.183 4.46358 16.3178 4.46358 16.484C4.46358 16.6503 4.59838 16.7851 4.76466 16.7851Z" fill="#64B5F6"/>
<path d="M29.6012 22.9293C29.7675 22.9293 29.9023 22.7946 29.9023 22.6283C29.9023 22.462 29.7675 22.3272 29.6012 22.3272C29.4349 22.3272 29.3001 22.462 29.3001 22.6283C29.3001 22.7946 29.4349 22.9293 29.6012 22.9293Z" fill="#82A9FF"/>
<path d="M7.21483 28.5669C7.52549 28.5669 7.77733 28.315 7.77733 28.0044C7.77733 27.6937 7.52549 27.4419 7.21483 27.4419C6.90417 27.4419 6.65233 27.6937 6.65233 28.0044C6.65233 28.315 6.90417 28.5669 7.21483 28.5669Z" fill="#82A9FF"/>
<path d="M18.371 13.4108C18.6612 13.4108 18.8965 13.1756 18.8965 12.8854C18.8965 12.5952 18.6612 12.36 18.371 12.36C18.0809 12.36 17.8456 12.5952 17.8456 12.8854C17.8456 13.1756 18.0809 13.4108 18.371 13.4108Z" fill="url(#paint5_linear)"/>
<path d="M18.4576 19.9877C18.7478 19.9877 18.983 19.7525 18.983 19.4623C18.983 19.1721 18.7478 18.9369 18.4576 18.9369C18.1674 18.9369 17.9322 19.1721 17.9322 19.4623C17.9322 19.7525 18.1674 19.9877 18.4576 19.9877Z" fill="url(#paint6_linear)"/>
<path d="M46.0634 12.0262C46.3535 12.0262 46.5888 11.7909 46.5888 11.5008C46.5888 11.2106 46.3535 10.9753 46.0634 10.9753C45.7732 10.9753 45.5379 11.2106 45.5379 11.5008C45.5379 11.7909 45.7732 12.0262 46.0634 12.0262Z" fill="url(#paint7_linear)"/>
<path d="M58.0922 21.3723C58.3824 21.3723 58.6176 21.1371 58.6176 20.8469C58.6176 20.5567 58.3824 20.3215 58.0922 20.3215C57.802 20.3215 57.5668 20.5567 57.5668 20.8469C57.5668 21.1371 57.802 21.3723 58.0922 21.3723Z" fill="url(#paint8_linear)"/>
<path d="M18.371 13.2063C18.5483 13.2063 18.692 13.0626 18.692 12.8854C18.692 12.7082 18.5483 12.5645 18.371 12.5645C18.1938 12.5645 18.0501 12.7082 18.0501 12.8854C18.0501 13.0626 18.1938 13.2063 18.371 13.2063Z" fill="#0D47A1"/>
<path d="M26.4011 18.276C26.7596 18.276 27.0501 17.9854 27.0501 17.627C27.0501 17.2685 26.7596 16.9779 26.4011 16.9779C26.0426 16.9779 25.7521 17.2685 25.7521 17.627C25.7521 17.9854 26.0426 18.276 26.4011 18.276Z" fill="#64B5F6"/>
<path d="M45.5945 44.9637C45.5737 45.7252 45.3262 46.453 45.0312 47.16C44.9879 47.2638 44.9438 47.3668 44.8996 47.4689C44.8538 47.5728 44.8079 47.6766 44.762 47.7805C44.5214 48.3239 44.2757 48.8752 43.8966 49.333C43.875 49.3589 43.8534 49.3849 43.8309 49.41C43.7411 49.5109 43.6439 49.6049 43.5401 49.6912C43.2181 49.9752 42.8128 50.1473 42.3848 50.1819C41.5592 50.2252 40.8435 49.6497 40.2187 49.1071C39.4737 48.4615 38.7286 47.8151 37.9835 47.1678C37.7273 46.9462 37.106 46.4071 37.0514 46.3595V56.9397H36.8602L36.9744 58.7319L37.2133 62.4825C35.3361 62.8264 33.4317 62.9996 31.5234 63L31.3659 58.738L31.3209 57.5238L31.2992 56.9397H31.121L31.1054 57.2573L31.0353 58.738L30.8319 62.9922C28.9292 62.9538 27.0338 62.7435 25.1688 62.3639L25.3947 58.7371L25.5072 56.9397H25.3956V46.1882C25.0648 46.6245 24.6965 47.0311 24.2948 47.4032C23.5108 48.1388 22.6177 48.7783 21.7393 49.4013C21.2062 49.7795 20.5996 50.1698 19.9791 50.3195C19.8834 50.3428 19.7863 50.3599 19.6884 50.3706C19.4155 50.4049 19.1385 50.3749 18.8792 50.2832C18.7893 50.2511 18.7024 50.2112 18.6196 50.1638C18.5737 50.1387 18.5305 50.1118 18.4881 50.0833C17.8399 49.6411 17.4989 48.793 17.2315 48.0219C16.9079 47.0873 16.579 46.1086 16.7166 45.1289C16.8006 44.5362 17.0481 43.9918 17.3579 43.4752C17.5682 43.1247 17.807 42.7872 18.0433 42.4566C18.1566 42.2983 18.2934 42.1269 18.4742 42.0785H18.4751L18.4881 42.0759C18.5099 42.0705 18.5322 42.0673 18.5547 42.0663C18.5764 42.0656 18.598 42.0662 18.6196 42.0681C18.8005 42.0897 18.9537 42.2342 19.0843 42.3684C19.286 42.5761 19.4873 42.7835 19.6884 42.9906C19.7853 43.0901 19.8822 43.1896 19.9791 43.2891C19.9947 43.3056 20.0103 43.322 20.0267 43.3385C20.1548 43.47 20.282 43.6015 20.4101 43.7331C20.6602 43.3012 20.912 42.8668 21.1777 42.4419C21.7177 41.5765 22.3148 40.751 23.0651 40.0647C23.4378 39.7219 23.8507 39.4255 24.2948 39.182C24.6801 38.9694 25.0911 38.8068 25.5176 38.6983C26.0091 38.5754 26.3752 38.5191 26.6262 38.6074C26.8235 38.6766 26.9498 38.8367 27.0095 39.1249C27.0106 39.1277 27.0112 39.1306 27.0113 39.1336C27.0393 39.2863 27.0527 39.4413 27.0511 39.5965C27.0511 39.6926 27.0511 39.7887 27.0502 39.8856H35.2731C35.2653 39.6363 35.2584 39.3629 35.2713 39.1336C35.2739 39.0782 35.2783 39.0254 35.2835 38.9761C35.2859 38.8622 35.3181 38.7509 35.3769 38.6533C35.4184 38.6116 35.4684 38.5793 35.5235 38.5587C35.5787 38.5381 35.6376 38.5296 35.6962 38.5338C36.0753 38.5287 36.6231 38.7805 36.8913 38.8809C37.2678 39.0223 37.633 39.1924 37.9835 39.3897C39.6744 40.3364 41.0313 41.895 41.6544 43.7357C41.7164 43.5076 41.8255 43.2951 41.9746 43.1117C42.0748 42.9866 42.1902 42.8744 42.3182 42.7777C42.524 42.6211 42.7569 42.5038 43.0053 42.4315C43.1788 42.3793 43.3589 42.3516 43.5401 42.3493C43.6374 42.3474 43.7346 42.3538 43.8309 42.3684C43.9867 42.3907 44.1386 42.4353 44.2817 42.5008C44.5156 42.6097 44.7256 42.7638 44.8996 42.9542C44.9463 43.0044 44.9896 43.0563 45.0311 43.11C45.2944 43.4633 45.47 43.8741 45.5435 44.3086C45.5837 44.5245 45.6008 44.7441 45.5945 44.9637Z" fill="white"/>
<path d="M36.2789 32.5848C35.6266 30.2783 33.5971 28.4132 31.1931 28.4132C28.789 28.4132 26.7595 30.2783 26.1072 32.5848C25.8209 32.5848 25.5463 32.6986 25.3438 32.901C25.1413 33.1035 25.0276 33.3781 25.0276 33.6645V34.9774H25.9512C26.349 37.4862 28.5441 39.149 31.1931 39.149C33.842 39.149 36.0372 37.4862 36.4349 34.9774H37.3864V33.6924C37.3864 33.5469 37.3578 33.4029 37.3021 33.2685C37.2465 33.1341 37.1649 33.0121 37.062 32.9092C36.9592 32.8064 36.8371 32.7248 36.7027 32.6691C36.5683 32.6135 36.4243 32.5848 36.2789 32.5848Z" fill="white"/>
<path d="M31.1624 38.4742C33.5341 38.4742 35.4567 36.5516 35.4567 34.1799C35.4567 31.8082 33.5341 29.8855 31.1624 29.8855C28.7907 29.8855 26.868 31.8082 26.868 34.1799C26.868 36.5516 28.7907 38.4742 31.1624 38.4742Z" fill="#8FD2ED"/>
<path d="M45.3029 25.2381C45.3032 25.4418 45.2387 25.6403 45.1186 25.8049C45.0599 25.8863 44.9886 25.9579 44.9074 26.0169C44.905 26.0192 44.9024 26.0212 44.8996 26.023V60.0162C44.5474 60.1823 44.1911 60.3421 43.8309 60.4956V26.0602C43.6875 25.9719 43.5697 25.8477 43.4892 25.6998C43.4087 25.552 43.3682 25.3857 43.3718 25.2174C43.3754 25.0491 43.4229 24.8846 43.5097 24.7403C43.5964 24.5961 43.7194 24.477 43.8664 24.3949C44.0134 24.3128 44.1792 24.2706 44.3476 24.2724C44.5159 24.2742 44.6809 24.3199 44.8261 24.4052C44.9712 24.4904 45.0916 24.6121 45.1753 24.7582C45.2589 24.9043 45.3029 25.0697 45.3029 25.2381Z" fill="#E0E0E0"/>
<path d="M63 31.5C63 33.2514 62.8581 34.7096 62.5837 35.9745C56.6916 27.3155 50.7995 46.6422 44.9074 36.6335V26.389C50.8007 36.3997 56.6939 17.0635 62.5872 25.7351C62.8484 27.6459 62.9863 29.5715 63 31.5Z" fill="#8FD2ED"/>
<path d="M20.1487 25.2381C20.1492 25.3747 20.1204 25.5099 20.0641 25.6344C20.0078 25.7589 19.9254 25.8699 19.8225 25.9598C19.781 25.9974 19.7361 26.031 19.6884 26.0602V60.7102C19.3284 60.5657 18.9721 60.4139 18.6196 60.255V26.023C18.6168 26.0212 18.6142 26.0192 18.6118 26.0169C18.5306 25.9579 18.4593 25.8864 18.4007 25.8049C18.3113 25.6815 18.2523 25.5387 18.2287 25.3882C18.205 25.2377 18.2173 25.0837 18.2645 24.9388C18.3117 24.794 18.3926 24.6623 18.5004 24.5547C18.6082 24.447 18.74 24.3664 18.8849 24.3194C19.0299 24.2724 19.1839 24.2604 19.3343 24.2843C19.4848 24.3082 19.6275 24.3673 19.7508 24.4569C19.874 24.5465 19.9743 24.664 20.0435 24.7997C20.1127 24.9355 20.1487 25.0857 20.1487 25.2381Z" fill="#E0E0E0"/>
<path d="M18.6118 26.389C18.6118 29.8038 18.6118 33.2187 18.6118 36.6335C12.5466 26.6182 6.48144 45.9768 0.41625 37.2754C0.15251 35.3613 0.0134671 33.4321 0 31.5C0 29.7566 0.141053 28.2961 0.412789 27.026C6.47913 35.7397 12.5455 16.3718 18.6118 26.389Z" fill="#8FD2ED"/>
<path opacity="0.2" d="M31.7045 30.8342C32.3693 30.8337 33.0251 30.9878 33.6201 31.2843C34.2151 31.5809 34.733 32.0117 35.1329 32.5429C34.9004 31.9788 34.5503 31.4707 34.1061 31.0525C33.6619 30.6343 33.1336 30.3156 32.5565 30.1176C31.9795 29.9195 31.3668 29.8467 30.7594 29.904C30.152 29.9612 29.5637 30.1473 29.0339 30.4497C28.504 30.7521 28.0446 31.1639 27.6863 31.6578C27.3281 32.1517 27.0792 32.7162 26.9562 33.3138C26.8332 33.9114 26.839 34.5283 26.9731 35.1235C27.1072 35.7187 27.3666 36.2785 27.734 36.7655C27.4652 36.1131 27.3613 35.4046 27.4314 34.7025C27.5015 34.0004 27.7435 33.3264 28.136 32.7401C28.5285 32.1537 29.0594 31.6731 29.6818 31.3407C30.3042 31.0083 30.9989 30.8343 31.7045 30.8342V30.8342Z" fill="black"/>
<path d="M15.8706 21.9972H15.7026C15.6684 21.9972 15.5838 21.8629 15.5838 21.8243V21.6682C15.5838 21.5464 15.446 21.2122 15.3242 21.2122C15.2024 21.2122 15.0646 21.5464 15.0646 21.6682V21.8243C15.0646 21.8792 15.0221 21.9972 14.9703 21.9972H14.8023C14.6805 21.9972 14.3463 22.0917 14.3463 22.2135C14.3463 22.3353 14.6805 22.4299 14.8023 22.4299H15.0027C15.0661 22.4299 15.0646 22.4951 15.0646 22.5284V22.7366C15.0646 22.8584 15.2024 23.1926 15.3242 23.1926C15.446 23.1926 15.5838 22.8584 15.5838 22.7366V22.5284C15.5838 22.5008 15.6395 22.4299 15.6703 22.4299H15.8706C15.9925 22.4299 16.3266 22.3353 16.3266 22.2135C16.3266 22.0917 15.9925 21.9972 15.8706 21.9972Z" fill="#2196F3"/>
<path d="M23.0694 28.3433C23.2366 28.3433 23.3722 28.2077 23.3722 28.0404C23.3722 27.8732 23.2366 27.7375 23.0694 27.7375C22.9021 27.7375 22.7665 27.8732 22.7665 28.0404C22.7665 28.2077 22.9021 28.3433 23.0694 28.3433Z" fill="#0D47A1"/>
<path d="M55.9071 22.7688C56.2397 22.7688 56.5093 22.4992 56.5093 22.1666C56.5093 21.8341 56.2397 21.5645 55.9071 21.5645C55.5745 21.5645 55.3049 21.8341 55.3049 22.1666C55.3049 22.4992 55.5745 22.7688 55.9071 22.7688Z" fill="#64B5F6"/>
<path d="M32.9347 26.7856C33.0542 26.7856 33.1511 26.6888 33.1511 26.5693C33.1511 26.4498 33.0542 26.3529 32.9347 26.3529C32.8153 26.3529 32.7184 26.4498 32.7184 26.5693C32.7184 26.6888 32.8153 26.7856 32.9347 26.7856Z" fill="#0071BC"/>
<path d="M18.4576 19.7832C18.6348 19.7832 18.7785 19.6396 18.7785 19.4623C18.7785 19.2851 18.6348 19.1414 18.4576 19.1414C18.2803 19.1414 18.1367 19.2851 18.1367 19.4623C18.1367 19.6396 18.2803 19.7832 18.4576 19.7832Z" fill="#0D47A1"/>
<path d="M50.8754 16.4587H50.7074C50.6732 16.4587 50.5886 16.3244 50.5886 16.2859V16.1298C50.5886 16.0079 50.4508 15.6738 50.329 15.6738C50.2072 15.6738 50.0694 16.0079 50.0694 16.1298V16.2859C50.0694 16.3408 50.027 16.4587 49.9751 16.4587H49.8071C49.6853 16.4587 49.3511 16.5532 49.3511 16.675C49.3511 16.7969 49.6853 16.8914 49.8071 16.8914H50.0075C50.0709 16.8914 50.0694 16.9567 50.0694 16.9899V17.1981C50.0694 17.3199 50.2072 17.6541 50.329 17.6541C50.4508 17.6541 50.5886 17.3199 50.5886 17.1981V16.9899C50.5886 16.9623 50.6443 16.8914 50.6751 16.8914H50.8754C50.9973 16.8914 51.3314 16.7969 51.3314 16.675C51.3314 16.5532 50.9973 16.4587 50.8754 16.4587Z" fill="#2196F3"/>
<path d="M58.0742 21.0741C58.2414 21.0741 58.377 20.9385 58.377 20.7712C58.377 20.6039 58.2414 20.4683 58.0742 20.4683C57.9069 20.4683 57.7713 20.6039 57.7713 20.7712C57.7713 20.9385 57.9069 21.0741 58.0742 21.0741Z" fill="#0D47A1"/>
<path d="M46.0453 11.8145C46.2126 11.8145 46.3482 11.6789 46.3482 11.5116C46.3482 11.3443 46.2126 11.2087 46.0453 11.2087C45.878 11.2087 45.7424 11.3443 45.7424 11.5116C45.7424 11.6789 45.878 11.8145 46.0453 11.8145Z" fill="#0D47A1"/>
<path d="M54.9119 20.8944C55.3563 20.8944 55.7166 20.5341 55.7166 20.0897C55.7166 19.6453 55.3563 19.285 54.9119 19.285C54.4675 19.285 54.1072 19.6453 54.1072 20.0897C54.1072 20.5341 54.4675 20.8944 54.9119 20.8944Z" fill="url(#paint9_linear)"/>
<path d="M43.2292 22.3656C43.6736 22.3656 44.0339 22.0053 44.0339 21.5609C44.0339 21.1164 43.6736 20.7561 43.2292 20.7561C42.7848 20.7561 42.4245 21.1164 42.4245 21.5609C42.4245 22.0053 42.7848 22.3656 43.2292 22.3656Z" fill="url(#paint10_linear)"/>
<path d="M35.8735 13.7983C36.3179 13.7983 36.6782 13.438 36.6782 12.9936C36.6782 12.5491 36.3179 12.1888 35.8735 12.1888C35.429 12.1888 35.0687 12.5491 35.0687 12.9936C35.0687 13.438 35.429 13.7983 35.8735 13.7983Z" fill="url(#paint11_linear)"/>
<path d="M26.4407 18.4714C26.8852 18.4714 27.2455 18.1111 27.2455 17.6666C27.2455 17.2222 26.8852 16.8619 26.4407 16.8619C25.9963 16.8619 25.636 17.2222 25.636 17.6666C25.636 18.1111 25.9963 18.4714 26.4407 18.4714Z" fill="url(#paint12_linear)"/>
<path d="M10.085 15.0098C10.5294 15.0098 10.8897 14.6495 10.8897 14.2051C10.8897 13.7607 10.5294 13.4004 10.085 13.4004C9.64055 13.4004 9.28027 13.7607 9.28027 14.2051C9.28027 14.6495 9.64055 15.0098 10.085 15.0098Z" fill="url(#paint13_linear)"/>
<path d="M7.2292 28.7694C7.67364 28.7694 8.03393 28.4091 8.03393 27.9647C8.03393 27.5203 7.67364 27.16 7.2292 27.16C6.78477 27.16 6.42448 27.5203 6.42448 27.9647C6.42448 28.4091 6.78477 28.7694 7.2292 28.7694Z" fill="url(#paint14_linear)"/>
<path d="M52.4474 11.9863C52.6876 11.9863 52.8823 11.7915 52.8823 11.5513C52.8823 11.3111 52.6876 11.1164 52.4474 11.1164C52.2072 11.1164 52.0124 11.3111 52.0124 11.5513C52.0124 11.7915 52.2072 11.9863 52.4474 11.9863Z" fill="url(#paint15_linear)"/>
<path d="M29.6012 23.0632C29.8414 23.0632 30.0361 22.8685 30.0361 22.6283C30.0361 22.3881 29.8414 22.1933 29.6012 22.1933C29.361 22.1933 29.1663 22.3881 29.1663 22.6283C29.1663 22.8685 29.361 23.0632 29.6012 23.0632Z" fill="url(#paint16_linear)"/>
<path d="M4.76467 16.919C5.00487 16.919 5.1996 16.7242 5.1996 16.484C5.1996 16.2438 5.00487 16.0491 4.76467 16.0491C4.52447 16.0491 4.32974 16.2438 4.32974 16.484C4.32974 16.7242 4.52447 16.919 4.76467 16.919Z" fill="url(#paint17_linear)"/>
<path d="M10.3897 27.9094C10.6299 27.9094 10.8246 27.7146 10.8246 27.4744C10.8246 27.2342 10.6299 27.0395 10.3897 27.0395C10.1495 27.0395 9.95474 27.2342 9.95474 27.4744C9.95474 27.7146 10.1495 27.9094 10.3897 27.9094Z" fill="url(#paint18_linear)"/>
<path d="M20.255 26.4382C20.4953 26.4382 20.69 26.2435 20.69 26.0033C20.69 25.7631 20.4953 25.5683 20.255 25.5683C20.0148 25.5683 19.8201 25.7631 19.8201 26.0033C19.8201 26.2435 20.0148 26.4382 20.255 26.4382Z" fill="url(#paint19_linear)"/>
<path d="M34.5339 19.6017C34.7741 19.6017 34.9688 19.4069 34.9688 19.1667C34.9688 18.9265 34.7741 18.7318 34.5339 18.7318C34.2937 18.7318 34.099 18.9265 34.099 19.1667C34.099 19.4069 34.2937 19.6017 34.5339 19.6017Z" fill="url(#paint20_linear)"/>
<path d="M52.4474 11.8524C52.6136 11.8524 52.7484 11.7176 52.7484 11.5513C52.7484 11.3851 52.6136 11.2503 52.4474 11.2503C52.2811 11.2503 52.1463 11.3851 52.1463 11.5513C52.1463 11.7176 52.2811 11.8524 52.4474 11.8524Z" fill="#82A9FF"/>
<path d="M54.8975 20.6919C55.2082 20.6919 55.46 20.44 55.46 20.1294C55.46 19.8187 55.2082 19.5669 54.8975 19.5669C54.5869 19.5669 54.335 19.8187 54.335 20.1294C54.335 20.44 54.5869 20.6919 54.8975 20.6919Z" fill="#64B5F6"/>
<path opacity="0.2" d="M30.9808 36.3462C32.3668 36.3462 33.4904 36.1524 33.4904 35.9135C33.4904 35.6745 32.3668 35.4808 30.9808 35.4808C29.5947 35.4808 28.4711 35.6745 28.4711 35.9135C28.4711 36.1524 29.5947 36.3462 30.9808 36.3462Z" fill="black"/>
<path d="M28.4712 25.8365H28.125V31.2885H28.4712V25.8365Z" fill="white"/>
<path d="M34.7885 27.2693H34.4423V32.7212H34.7885V27.2693Z" fill="white"/>
<path d="M28.2981 25.7019C28.776 25.7019 29.1635 25.3145 29.1635 24.8365C29.1635 24.3586 28.776 23.9711 28.2981 23.9711C27.8201 23.9711 27.4327 24.3586 27.4327 24.8365C27.4327 25.3145 27.8201 25.7019 28.2981 25.7019Z" fill="white"/>
<path d="M34.6154 25.7019C35.0933 25.7019 35.4808 25.3145 35.4808 24.8365C35.4808 24.3586 35.0933 23.9711 34.6154 23.9711C34.1374 23.9711 33.75 24.3586 33.75 24.8365C33.75 25.3145 34.1374 25.7019 34.6154 25.7019Z" fill="white"/>
</g>
<defs>
<linearGradient id="paint0_linear" x1="2.65859" y1="22.9047" x2="2.65859" y2="20.2886" gradientUnits="userSpaceOnUse">
<stop stop-color="#808080" stop-opacity="0.25"/>
<stop offset="0.53514" stop-color="#808080" stop-opacity="0.12"/>
<stop offset="1" stop-color="#808080" stop-opacity="0.1"/>
</linearGradient>
<linearGradient id="paint1_linear" x1="1439.65" y1="656.62" x2="1439.65" y2="577.533" gradientUnits="userSpaceOnUse">
<stop stop-color="#808080" stop-opacity="0.25"/>
<stop offset="0.53514" stop-color="#808080" stop-opacity="0.12"/>
<stop offset="1" stop-color="#808080" stop-opacity="0.1"/>
</linearGradient>
<linearGradient id="paint2_linear" x1="2188.28" y1="783.643" x2="2188.28" y2="704.557" gradientUnits="userSpaceOnUse">
<stop stop-color="#808080" stop-opacity="0.25"/>
<stop offset="0.53514" stop-color="#808080" stop-opacity="0.12"/>
<stop offset="1" stop-color="#808080" stop-opacity="0.1"/>
</linearGradient>
<linearGradient id="paint3_linear" x1="754.343" y1="697.107" x2="754.343" y2="648.198" gradientUnits="userSpaceOnUse">
<stop stop-color="#808080" stop-opacity="0.25"/>
<stop offset="0.53514" stop-color="#808080" stop-opacity="0.12"/>
<stop offset="1" stop-color="#808080" stop-opacity="0.1"/>
</linearGradient>
<linearGradient id="paint4_linear" x1="1504.69" y1="574.908" x2="1504.69" y2="525.999" gradientUnits="userSpaceOnUse">
<stop stop-color="#808080" stop-opacity="0.25"/>
<stop offset="0.53514" stop-color="#808080" stop-opacity="0.12"/>
<stop offset="1" stop-color="#808080" stop-opacity="0.1"/>
</linearGradient>
<linearGradient id="paint5_linear" x1="240.925" y1="175.207" x2="240.925" y2="162.447" gradientUnits="userSpaceOnUse">
<stop stop-color="#808080" stop-opacity="0.25"/>
<stop offset="0.53514" stop-color="#808080" stop-opacity="0.12"/>
<stop offset="1" stop-color="#808080" stop-opacity="0.1"/>
</linearGradient>
<linearGradient id="paint6_linear" x1="242.063" y1="261.648" x2="242.063" y2="248.888" gradientUnits="userSpaceOnUse">
<stop stop-color="#808080" stop-opacity="0.25"/>
<stop offset="0.53514" stop-color="#808080" stop-opacity="0.12"/>
<stop offset="1" stop-color="#808080" stop-opacity="0.1"/>
</linearGradient>
<linearGradient id="paint7_linear" x1="604.885" y1="157.009" x2="604.885" y2="144.249" gradientUnits="userSpaceOnUse">
<stop stop-color="#808080" stop-opacity="0.25"/>
<stop offset="0.53514" stop-color="#808080" stop-opacity="0.12"/>
<stop offset="1" stop-color="#808080" stop-opacity="0.1"/>
</linearGradient>
<linearGradient id="paint8_linear" x1="762.981" y1="279.846" x2="762.981" y2="267.086" gradientUnits="userSpaceOnUse">
<stop stop-color="#808080" stop-opacity="0.25"/>
<stop offset="0.53514" stop-color="#808080" stop-opacity="0.12"/>
<stop offset="1" stop-color="#808080" stop-opacity="0.1"/>
</linearGradient>
<linearGradient id="paint9_linear" x1="1075.36" y1="407.881" x2="1075.36" y2="377.948" gradientUnits="userSpaceOnUse">
<stop stop-color="#808080" stop-opacity="0.25"/>
<stop offset="0.53514" stop-color="#808080" stop-opacity="0.12"/>
<stop offset="1" stop-color="#808080" stop-opacity="0.1"/>
</linearGradient>
<linearGradient id="paint10_linear" x1="846.405" y1="436.713" x2="846.405" y2="406.78" gradientUnits="userSpaceOnUse">
<stop stop-color="#808080" stop-opacity="0.25"/>
<stop offset="0.53514" stop-color="#808080" stop-opacity="0.12"/>
<stop offset="1" stop-color="#808080" stop-opacity="0.1"/>
</linearGradient>
<linearGradient id="paint11_linear" x1="702.246" y1="268.81" x2="702.246" y2="238.877" gradientUnits="userSpaceOnUse">
<stop stop-color="#808080" stop-opacity="0.25"/>
<stop offset="0.53514" stop-color="#808080" stop-opacity="0.12"/>
<stop offset="1" stop-color="#808080" stop-opacity="0.1"/>
</linearGradient>
<linearGradient id="paint12_linear" x1="517.383" y1="360.393" x2="517.383" y2="330.461" gradientUnits="userSpaceOnUse">
<stop stop-color="#808080" stop-opacity="0.25"/>
<stop offset="0.53514" stop-color="#808080" stop-opacity="0.12"/>
<stop offset="1" stop-color="#808080" stop-opacity="0.1"/>
</linearGradient>
<linearGradient id="paint13_linear" x1="196.841" y1="292.554" x2="196.841" y2="262.621" gradientUnits="userSpaceOnUse">
<stop stop-color="#808080" stop-opacity="0.25"/>
<stop offset="0.53514" stop-color="#808080" stop-opacity="0.12"/>
<stop offset="1" stop-color="#808080" stop-opacity="0.1"/>
</linearGradient>
<linearGradient id="paint14_linear" x1="140.874" y1="562.216" x2="140.874" y2="532.283" gradientUnits="userSpaceOnUse">
<stop stop-color="#808080" stop-opacity="0.25"/>
<stop offset="0.53514" stop-color="#808080" stop-opacity="0.12"/>
<stop offset="1" stop-color="#808080" stop-opacity="0.1"/>
</linearGradient>
<linearGradient id="paint15_linear" x1="579.194" y1="131.598" x2="579.194" y2="122.855" gradientUnits="userSpaceOnUse">
<stop stop-color="#808080" stop-opacity="0.25"/>
<stop offset="0.53514" stop-color="#808080" stop-opacity="0.12"/>
<stop offset="1" stop-color="#808080" stop-opacity="0.1"/>
</linearGradient>
<linearGradient id="paint16_linear" x1="326.707" y1="254.016" x2="326.707" y2="245.273" gradientUnits="userSpaceOnUse">
<stop stop-color="#808080" stop-opacity="0.25"/>
<stop offset="0.53514" stop-color="#808080" stop-opacity="0.12"/>
<stop offset="1" stop-color="#808080" stop-opacity="0.1"/>
</linearGradient>
<linearGradient id="paint17_linear" x1="52.2226" y1="186.113" x2="52.2226" y2="177.369" gradientUnits="userSpaceOnUse">
<stop stop-color="#808080" stop-opacity="0.25"/>
<stop offset="0.53514" stop-color="#808080" stop-opacity="0.12"/>
<stop offset="1" stop-color="#808080" stop-opacity="0.1"/>
</linearGradient>
<linearGradient id="paint18_linear" x1="114.388" y1="307.574" x2="114.388" y2="298.831" gradientUnits="userSpaceOnUse">
<stop stop-color="#808080" stop-opacity="0.25"/>
<stop offset="0.53514" stop-color="#808080" stop-opacity="0.12"/>
<stop offset="1" stop-color="#808080" stop-opacity="0.1"/>
</linearGradient>
<linearGradient id="paint19_linear" x1="223.417" y1="291.315" x2="223.417" y2="282.572" gradientUnits="userSpaceOnUse">
<stop stop-color="#808080" stop-opacity="0.25"/>
<stop offset="0.53514" stop-color="#808080" stop-opacity="0.12"/>
<stop offset="1" stop-color="#808080" stop-opacity="0.1"/>
</linearGradient>
<linearGradient id="paint20_linear" x1="381.221" y1="215.761" x2="381.221" y2="207.018" gradientUnits="userSpaceOnUse">
<stop stop-color="#808080" stop-opacity="0.25"/>
<stop offset="0.53514" stop-color="#808080" stop-opacity="0.12"/>
<stop offset="1" stop-color="#808080" stop-opacity="0.1"/>
</linearGradient>
<clipPath id="clip0">
<rect width="63" height="63" fill="white"/>
</clipPath>
</defs>
</svg>
